<svg width="34" height="22" viewBox="0 0 34 22" fill="none" xmlns="http://www.w3.org/2000/svg">
<path d="M15.6948 11.9008H13.3194C12.3395 11.9008 11.5378 11.0991 11.5378 10.1192C11.5378 9.13939 12.3395 8.3377 13.3194 8.3377H15.6948V7.14999H13.3194C11.6803 7.14999 10.3501 8.48022 10.3501 10.1192C10.3501 11.7583 11.6803 13.0885 13.3194 13.0885H15.6948V11.9008ZM13.9132 9.5254H18.664V10.7131H13.9132V9.5254Z" fill="black"/>
<path d="M19.415 7.24228L21.6083 8.1544C23.1217 8.78377 23.8392 10.5228 23.2098 12.0362C22.5805 13.5496 20.8414 14.267 19.328 13.6377L17.1347 12.7255L17.5908 11.6289L19.7841 12.541C20.6888 12.9173 21.7369 12.4849 22.1132 11.5801C22.4894 10.6754 22.057 9.6273 21.1523 9.25105L18.959 8.33893L19.415 7.24228Z" fill="black"/>
<rect x="0.5" y="0.5" width="33" height="21" rx="10.5" stroke="#D7D7D8"/>
</svg>
