<svg width="34" height="22" viewBox="0 0 34 22" fill="none" xmlns="http://www.w3.org/2000/svg">
<rect width="34" height="22" rx="11" fill="#13100D"/>
<path d="M20.0625 7.5H17.6125V8.725H20.0625C21.0731 8.725 21.9 9.55188 21.9 10.5625C21.9 11.5731 21.0731 12.4 20.0625 12.4H17.6125V13.625H20.0625C21.753 13.625 23.125 12.253 23.125 10.5625C23.125 8.872 21.753 7.5 20.0625 7.5ZM16.3875 12.4H13.9375C12.9269 12.4 12.1 11.5731 12.1 10.5625C12.1 9.55188 12.9269 8.725 13.9375 8.725H16.3875V7.5H13.9375C12.247 7.5 10.875 8.872 10.875 10.5625C10.875 12.253 12.247 13.625 13.9375 13.625H16.3875V12.4ZM14.55 9.95H19.45V11.175H14.55V9.95Z" fill="white"/>
</svg>
