<svg width="14" height="20" viewBox="0 0 14 20" fill="none" xmlns="http://www.w3.org/2000/svg">
<path d="M7.00065 0.833008C3.45315 0.833008 0.583984 3.70217 0.583984 7.24967C0.583984 12.0622 7.00065 19.1663 7.00065 19.1663C7.00065 19.1663 13.4173 12.0622 13.4173 7.24967C13.4173 3.70217 10.5482 0.833008 7.00065 0.833008ZM2.41732 7.24967C2.41732 4.71967 4.47065 2.66634 7.00065 2.66634C9.53065 2.66634 11.584 4.71967 11.584 7.24967C11.584 9.88967 8.94398 13.8405 7.00065 16.3063C5.09398 13.8588 2.41732 9.86217 2.41732 7.24967Z" fill="#13100D" fill-opacity="0.9"/>
<path d="M7.00065 9.54134C8.2663 9.54134 9.29232 8.51533 9.29232 7.24967C9.29232 5.98402 8.2663 4.95801 7.00065 4.95801C5.735 4.95801 4.70898 5.98402 4.70898 7.24967C4.70898 8.51533 5.735 9.54134 7.00065 9.54134Z" fill="#13100D" fill-opacity="0.9"/>
</svg>
